PathFileType	4	(X/Y/Z)	C:\Users\Willi\SynologyDrive\Deimel_MSc_Deadlift\Athlete_03\Athlete_3_22_07_06\dl_90\marker_experimental.trc
DataRate	CameraRate	NumFrames	NumMarkers	Units	OrigDataRate	OrigDataStartFrame	OrigNumFrames
200.000000	200.000000	4	59	mm	200.000000	0	5390
Frame#	Time	BR			GLAB			RFHD			LFHD			C7			T6			SPINMOL			SPINM2			SPINM3			T12			BELTOL			BELT2			BELT3			SACROL			SACR2			SACR3			LTHOL			LTH2			LTH3			LSHAOL			LSHA2			LSHA3			LHEE			LTOE			LM5			RTHOL			RTH2			RTH3			RSHAOL			RSHA2			RSHA3			RHEE			RTOE			RM5			STRN			XIPH			LACR			LUAOL			LUA2			LUA3			LLAOL			LLA2			LLA3			LWRU			RACR			RUAOL			RUA2			RUA3			RLAOL			RLA2			RLA3			RWRU			BL			USERMO0			USERMO1			USERMO2			USERMO3			USERMO4			USERMO5			
		X1	Y1	Z1	X2	Y2	Z2	X3	Y3	Z3	X4	Y4	Z4	X5	Y5	Z5	X6	Y6	Z6	X7	Y7	Z7	X8	Y8	Z8	X9	Y9	Z9	X10	Y10	Z10	X11	Y11	Z11	X12	Y12	Z12	X13	Y13	Z13	X14	Y14	Z14	X15	Y15	Z15	X16	Y16	Z16	X17	Y17	Z17	X18	Y18	Z18	X19	Y19	Z19	X20	Y20	Z20	X21	Y21	Z21	X22	Y22	Z22	X23	Y23	Z23	X24	Y24	Z24	X25	Y25	Z25	X26	Y26	Z26	X27	Y27	Z27	X28	Y28	Z28	X29	Y29	Z29	X30	Y30	Z30	X31	Y31	Z31	X32	Y32	Z32	X33	Y33	Z33	X34	Y34	Z34	X35	Y35	Z35	X36	Y36	Z36	X37	Y37	Z37	X38	Y38	Z38	X39	Y39	Z39	X40	Y40	Z40	X41	Y41	Z41	X42	Y42	Z42	X43	Y43	Z43	X44	Y44	Z44	X45	Y45	Z45	X46	Y46	Z46	X47	Y47	Z47	X48	Y48	Z48	X49	Y49	Z49	X50	Y50	Z50	X51	Y51	Z51	X52	Y52	Z52	X53	Y53	Z53	X54	Y54	Z54	X55	Y55	Z55	X56	Y56	Z56	X57	Y57	Z57	X58	Y58	Z58	X59	Y59	Z59	

1	0	206.77392578125	250.7734375	-104.351692199707	307.6701049804688	1610.533203125	-1200.023193359375	246.0930023193359	1614.464477539062	-1125.128784179688	244.3037872314453	1622.576416015625	-1276.34423828125	96.29168701171875	1468.8583984375	-1204.213500976562	39.53404998779297	1265.563842773438	-1211.583984375	36.34789657592773	1233.018188476562	-1214.795654296875	35.1057014465332	1171.786499023438	-1162.754638671875	42.40380859375	1171.378295898438	-1211.959594726562	54.14570617675781	1128.067504882812	-1210.521484375	33.07517623901367	1094.543334960938	-1210.389770507812	39.28046417236328	1034.339721679688	-1158.109497070312	30.76797676086426	1032.495239257812	-1207.697021484375	39.07126617431641	997.0946044921876	-1230.484008789062	52.22774887084961	1004.785522460938	-1180.98046875	17.21024131774902	949.8762207031251	-1189.866943359375	164.0453491210938	762.6342163085939	-1433.789794921875	117.6242446899414	700.6968994140626	-1413.619873046875	165.1707153320312	700.8133544921876	-1430.160766601562	112.6114883422852	352.2152404785157	-1439.427856445312	70.41403961181641	285.7760620117189	-1432.788818359375	119.3373718261719	290.6559143066407	-1440.469970703125	42.81194686889648	66.4607467651368	-1365.32470703125	252.2358856201172	75.46672058105477	-1382.593627929688	202.6544036865234	54.50860977172861	-1486.174926757812	159.3889923095703	734.7861938476564	-998.2040405273438	193.7806549072266	664.1188964843751	-983.7172241210938	147.5157470703125	673.5812377929689	-1000.52001953125	85.51496887207031	349.5231628417969	-985.2176513671875	125.0097579956055	281.9259338378907	-972.1138916015625	78.29547882080078	288.5368957519532	-989.0440673828125	44.95590972900391	65.26583099365241	-1068.065551757812	250.4611511230469	69.29108428955084	-1021.196350097656	190.7790374755859	67.15054321289068	-931.1373901367188	245.6264343261719	1383.78955078125	-1219.5830078125	283.05419921875	1230.716674804688	-1222.869262695312	156.9732513427734	1399.124389648438	-1429.138671875	163.9836883544922	1243.442993164062	-1498.022216796875	145.0935211181641	1180.231689453125	-1505.826904296875	195.8648376464844	1185.39599609375	-1501.685668945312	249.1343841552734	976.4915161132814	-1516.001953125	249.0194091796875	910.7850952148439	-1516.375	291.1447143554688	930.9568481445314	-1498.453491210938	299.2138061523438	831.1210327148439	-1501.086303710938	188.2546691894531	1392.104614257812	-1004.370788574219	229.1746520996094	1211.107788085938	-956.8086547851561	264.8931579589844	1159.628173828125	-978.3345336914061	235.4729919433594	1146.917602539062	-938.9160766601561	298.0133666992188	964.7872314453126	-941.9584960937499	332.8287048339844	919.2141723632814	-973.715087890625	306.1723937988281	900.6817016601564	-934.37548828125	319.5878295898438	824.9833984375001	-942.8064575195312	nan	nan	nan	0.0006582160131074488	0.002510430058464408	-0.00262234010733664	0.001045860000886023	0	0	0.002067880006507039	0.002981120022013783	-0.001299469964578748	0.00414972985163331	0	0	0	1.403769969940186	8.595612002132123e-17	1.466729998588562	0	0	
2	0.005	206.7743988037109	250.7727661132812	-104.3529357910156	307.7247314453125	1610.498413085938	-1200.050659179688	246.1562652587891	1614.4619140625	-1125.15087890625	244.3519439697266	1622.541748046875	-1276.369384765625	96.31848907470703	1468.861206054688	-1204.221801757812	39.55708312988281	1265.568603515625	-1211.587768554688	36.36915588378906	1233.02197265625	-1214.798706054688	35.11488723754883	1171.790405273438	-1162.758544921875	42.40669631958008	1171.385375976562	-1211.962646484375	54.15921783447266	1128.071166992188	-1210.521118164062	33.08079528808594	1094.54150390625	-1210.387939453125	39.28628921508789	1034.33642578125	-1158.106567382812	30.77293968200684	1032.493286132812	-1207.6953125	39.08049774169922	997.0878906250001	-1230.485473632812	52.23417282104492	1004.781372070313	-1180.979125976562	17.21882057189941	949.8724365234376	-1189.865844726562	164.0488891601562	762.6346435546876	-1433.789794921875	117.6274032592773	700.6967163085939	-1413.62109375	165.174560546875	700.8131713867189	-1430.162475585938	112.6117477416992	352.2153930664064	-1439.427978515625	70.41329956054688	285.7775878906251	-1432.792846679688	119.3376007080078	290.6562805175782	-1440.469482421875	42.81716918945312	66.45989990234384	-1365.322998046875	252.2360687255859	75.46713256835946	-1382.593505859375	202.6543731689453	54.50881958007822	-1486.1748046875	159.4000549316406	734.7882080078126	-998.2040405273438	193.7937316894531	664.1201171875001	-983.717041015625	147.5271148681641	673.5816650390626	-1000.518310546875	85.52417755126953	349.5238647460938	-985.21533203125	125.0173110961914	281.9252624511719	-972.1134033203125	78.30340576171875	288.5388488769532	-989.0416259765625	44.95778274536133	65.26663970947273	-1068.065185546875	250.4595642089844	69.28931427001959	-1021.195678710938	190.7796478271484	67.15151977539068	-931.1377563476562	245.6139984130859	1383.748657226562	-1219.584228515625	283.0344543457031	1230.677612304688	-1222.86865234375	156.9715576171875	1399.094360351562	-1429.136962890625	163.9364013671875	1243.404907226562	-1497.999267578125	145.0368194580078	1180.199340820312	-1505.807739257812	195.8133850097656	1185.3544921875	-1501.671752929688	249.0617370605469	976.4489746093751	-1515.998779296875	248.9429016113281	910.7437744140626	-1516.373291015625	291.0827941894531	930.9144897460939	-1498.46923828125	299.1428527832031	831.0749511718751	-1501.090942382812	188.2375793457031	1392.081787109375	-1004.377868652344	229.1396636962891	1211.08154296875	-956.8222045898436	264.8575134277344	1159.598266601562	-978.3404541015624	235.4254608154297	1146.879638671875	-938.9691772460936	297.9518432617188	964.7628784179689	-941.9572143554686	332.7733764648438	919.1898193359376	-973.7169189453125	306.1215515136719	900.6578979492189	-934.3646240234375	319.5399475097656	824.9584960937501	-942.7944946289062	nan	nan	nan	0.002638679929077625	0.004374890122562647	-0.002991260029375553	0.001887219958007336	0.002533890074118972	1.551560184330524e-19	0.002809310099110007	0.003493059892207384	-0.002698119962587953	0.005428980104625225	0.1964000016450882	-0.2501380145549774	0	1.582419991493225	-0.2234600037336349	1.644430041313171	0	0	
3	0.01	206.7749633789062	250.7719879150391	-104.3542785644531	307.78759765625	1610.457763671875	-1200.082397460938	246.2287445068359	1614.458984375	-1125.17626953125	244.4072723388672	1622.501586914062	-1276.398681640625	96.34900665283203	1468.864379882812	-1204.231567382812	39.58396911621094	1265.573974609375	-1211.591918945312	36.39371490478516	1233.0263671875	-1214.802368164062	35.1256103515625	1171.794799804688	-1162.76318359375	42.4132194519043	1171.393188476562	-1211.96630859375	54.17460250854492	1128.075439453125	-1210.52099609375	33.08713150024414	1094.539794921875	-1210.385498046875	39.29318237304688	1034.332885742188	-1158.103271484375	30.77869415283203	1032.4912109375	-1207.693115234375	39.09110260009766	997.0798950195314	-1230.487060546875	52.24132537841797	1004.776733398438	-1180.977294921875	17.22835540771484	949.8684082031251	-1189.864135742188	164.0525817871094	762.6351318359376	-1433.789916992188	117.6306228637695	700.6965332031251	-1413.622314453125	165.1784515380859	700.8129272460939	-1430.1640625	112.6118469238281	352.2154846191407	-1439.427978515625	70.41223907470703	285.7793884277345	-1432.797607421875	119.3375930786133	290.6564331054689	-1440.468872070312	42.82318496704102	66.45878601074227	-1365.320922851562	252.2362365722656	75.4673614501954	-1382.593505859375	202.6543731689453	54.50909805297861	-1486.174560546875	159.4126129150391	734.7904052734376	-998.2041625976562	193.8084259033203	664.1215209960939	-983.7169189453125	147.5399932861328	673.5822143554689	-1000.516845703125	85.53479766845703	349.5245361328126	-985.212890625	125.0259094238281	281.9244995117188	-972.1128540039062	78.31232452392578	288.5408935546876	-989.0391845703125	44.95992279052734	65.2674636840821	-1068.064697265625	250.4578247070312	69.28717803955084	-1021.194702148438	190.7804565429688	67.15258026123053	-931.13818359375	245.6002197265625	1383.70263671875	-1219.5859375	283.0121154785156	1230.633666992188	-1222.8681640625	156.9692230224609	1399.059936523438	-1429.13525390625	163.883056640625	1243.361572265625	-1497.973266601562	144.9728546142578	1180.16259765625	-1505.78662109375	195.7552947998047	1185.30712890625	-1501.6552734375	248.9790802001953	976.4001464843751	-1515.993896484375	248.8559112548828	910.6963500976564	-1516.369873046875	291.0123901367188	930.8659057617189	-1498.48583984375	299.0620727539062	831.0221557617189	-1501.093017578125	188.2181396484375	1392.05517578125	-1004.386291503906	229.0997619628906	1211.05126953125	-956.8378295898436	264.81689453125	1159.56396484375	-978.3477172851561	235.3716278076172	1146.836547851562	-939.0278930664061	297.882080078125	964.7344360351564	-941.9566650390624	332.7115783691406	919.1619262695314	-973.7174072265625	306.063720703125	900.6307983398439	-934.3527221679688	319.4852905273438	824.9296264648439	-942.7821655273438	nan	nan	nan	0.004585559945553541	0.006147379986941814	-0.003371079917997121	0.002704279962927103	0.005569220054894686	-0.0004191889893263575	0.003550329944118857	0.004002660047262907	-0.004054369870573282	0.006719000171869993	0.4329229891300202	-0.5402560234069824	0.1845030039548874	1.758180022239685	-0.4662329852581023	1.819239974021912	0	0	
4	0.015	206.775634765625	250.7711181640625	-104.3556976318359	307.8580627441406	1610.411376953125	-1200.118408203125	246.3098297119141	1614.455810546875	-1125.204711914062	244.4693603515625	1622.456420898438	-1276.432006835938	96.38289642333984	1468.867919921875	-1204.242797851562	39.61458969116211	1265.579833984375	-1211.596557617188	36.42140960693359	1233.031127929688	-1214.806640625	35.13781356811523	1171.799682617188	-1162.768798828125	42.42356491088867	1171.401489257812	-1211.970336914062	54.19171524047852	1128.080078125	-1210.52099609375	33.09408569335938	1094.538330078125	-1210.382446289062	39.30113983154297	1034.329345703125	-1158.099731445312	30.78520965576172	1032.489135742188	-1207.6904296875	39.10295104980469	997.0706787109376	-1230.488891601562	52.24910736083984	1004.771484375	-1180.974853515625	17.23867225646973	949.8643798828126	-1189.861938476562	164.0563201904297	762.6356201171876	-1433.789916992188	117.6337661743164	700.6962280273439	-1413.623779296875	165.1821899414062	700.8124389648439	-1430.165771484375	112.6117630004883	352.2154846191407	-1439.427978515625	70.41080474853516	285.7814331054689	-1432.803100585938	119.337272644043	290.6563720703126	-1440.467895507812	42.82992935180664	66.45738220214852	-1365.318725585938	252.2363891601562	75.46734619140634	-1382.593505859375	202.6543884277344	54.50945281982431	-1486.174438476562	159.4265289306641	734.7927856445314	-998.20458984375	193.8245239257812	664.1230468750001	-983.7169799804688	147.5542144775391	673.5828247070314	-1000.515686035156	85.54670715332031	349.5252075195313	-985.2105102539062	125.0354385375977	281.9237060546876	-972.1122436523438	78.32209777832031	288.5429382324219	-989.036865234375	44.96230316162109	65.26828765869148	-1068.064331054688	250.4559478759766	69.28466796875006	-1021.193481445312	190.781494140625	67.15371704101568	-931.1387329101562	245.5853729248047	1383.65234375	-1219.58837890625	282.9873962402344	1230.585205078125	-1222.86767578125	156.9661102294922	1399.021240234375	-1429.133666992188	163.8243865966797	1243.313232421875	-1497.944458007812	144.9024963378906	1180.121948242188	-1505.764038085938	195.6913604736328	1185.254028320312	-1501.636474609375	248.8873443603516	976.3454589843751	-1515.9873046875	248.7594146728516	910.6433715820314	-1516.364135742188	290.9343872070312	930.8115234375001	-1498.502563476562	298.9723815917969	830.9628906250001	-1501.091796875	188.1965789794922	1392.025024414062	-1004.396179199219	229.0553588867188	1211.016967773438	-956.8553466796874	264.7716979980469	1159.525390625	-978.3565063476561	235.3120574951172	1146.788818359375	-939.0907592773436	297.8049926757812	964.7020263671876	-941.9571533203124	332.6443176269531	919.1306762695314	-973.7162475585938	305.9996032714844	900.6005249023439	-934.340087890625	319.4244079589844	824.8967285156251	-942.7700805664062	nan	nan	nan	0.006473289802670479	0.007784460205584764	-0.00375474989414215	0.003478650003671646	0.008477989584207535	-0.001679879962466657	0.004274750128388405	0.004495330154895782	-0.005338729824870825	0.007995749823749065	0.654990017414093	-0.8103129863739014	0.42814901471138	1.925909996032715	-0.690414011478424	1.986189961433411	0	0	
